<?xml version="1.0" encoding="utf-8"?>
<!-- Generator: Adobe Illustrator 27.9.0, SVG Export Plug-In . SVG Version: 6.00 Build 0)  -->
<svg version="1.1" id="레이어_1" xmlns="http://www.w3.org/2000/svg" xmlns:xlink="http://www.w3.org/1999/xlink" x="0px"
	 y="0px" viewBox="0 0 66.8 55.9" style="enable-background:new 0 0 66.8 55.9;" xml:space="preserve">
<style type="text/css">
	.st0{fill:#EDC8D6;}
	.st1{fill:#181818;}
</style>
<g>
	<path class="st0" d="M63.5,38.6c0,4.9-4,8.9-8.9,8.9c-4.9,0-8.9-4-8.9-8.9c0-4.9,4-8.9,8.9-8.9C59.5,29.7,63.5,33.7,63.5,38.6z"/>
	<g>
		<g>
			<polygon class="st1" points="14.7,39.7 8.6,39.7 8.6,28.8 10.5,28.8 10.5,37.9 14.7,37.9 			"/>
			<polygon class="st1" points="45,39.7 24.4,39.7 24.4,37.9 43.1,37.9 43.1,10.2 6,10.2 6,8.4 45,8.4 			"/>
			<rect x="8.6" y="9.3" class="st1" width="1.8" height="5.4"/>
			<rect x="60" y="32.8" class="st1" width="2.5" height="1.8"/>
			<path class="st1" d="M40.9,31.1H12.7V12.4h28.2L40.9,31.1L40.9,31.1z M14.6,29.3H39v-15H14.6V29.3z"/>
			<g>
				<path class="st1" d="M60.1,30.7H46.8V19.8h5.9L60.1,30.7z M48.6,28.9h8l-4.9-7.2h-3.1C48.6,21.7,48.6,28.9,48.6,28.9z"/>
				<polygon class="st1" points="63.5,39.7 58.2,39.7 58.2,37.9 61.6,37.9 61.6,29.3 53.4,18 45,18 45,37.9 48.4,37.9 48.4,39.7 
					43.1,39.7 43.1,16.2 54.3,16.2 63.5,28.7 				"/>
			</g>
			<g>
				<path class="st1" d="M19.6,44.6c-3.2,0-5.8-2.6-5.8-5.8c0-3.2,2.6-5.8,5.8-5.8s5.8,2.6,5.8,5.8C25.4,42,22.8,44.6,19.6,44.6z
					 M19.6,34.8c-2.2,0-4,1.8-4,4s1.8,4,4,4c2.2,0,4-1.8,4-4S21.7,34.8,19.6,34.8z"/>
				<rect x="18.6" y="37.9" class="st1" width="2" height="1.8"/>
			</g>
			<g>
				<path class="st1" d="M53.3,44.6c-3.2,0-5.8-2.6-5.8-5.8c0-3.2,2.6-5.8,5.8-5.8c3.2,0,5.8,2.6,5.8,5.8
					C59.1,42,56.5,44.6,53.3,44.6z M53.3,34.8c-2.2,0-4,1.8-4,4s1.8,4,4,4c2.2,0,4-1.8,4-4S55.5,34.8,53.3,34.8z"/>
				<rect x="52.3" y="37.9" class="st1" width="2" height="1.8"/>
			</g>
			<rect x="3.3" y="16.9" class="st1" width="16.1" height="1.8"/>
			<rect x="10.5" y="24.8" class="st1" width="8.1" height="1.8"/>
			<rect x="6.8" y="20.9" class="st1" width="16" height="1.8"/>
			<rect x="4.1" y="24.8" class="st1" width="4.5" height="1.8"/>
		</g>
	</g>
</g>
</svg>
