<?xml version="1.0" encoding="utf-8"?>
<!-- Generator: Adobe Illustrator 27.9.0, SVG Export Plug-In . SVG Version: 6.00 Build 0)  -->
<svg version="1.1" id="레이어_1" xmlns="http://www.w3.org/2000/svg" xmlns:xlink="http://www.w3.org/1999/xlink" x="0px"
	 y="0px" viewBox="0 0 60 56" style="enable-background:new 0 0 60 56;" xml:space="preserve">
<style type="text/css">
	.st0{fill:#EDC8D6;}
	.st1{fill:#040000;}
</style>
<g>
	<path class="st0" d="M55.7,48.5c0,1-0.8,1.9-1.9,1.9H40.3c-1,0-1.9-0.8-1.9-1.9V34.9c0-1,0.8-1.9,1.9-1.9h13.5c1,0,1.9,0.8,1.9,1.9
		V48.5z"/>
	<g>
		<path class="st1" d="M36.7,25.1c3.3,0,6.8-3.2,6.8-9.1c0,0,0,0,0-0.1c0,0,0-0.1,0-0.1c0,0,0-0.1,0-0.1c0,0,0,0,0-0.1
			c0,0,0,0,0-0.1c0,0,0,0,0-0.1c0,0,0,0,0-0.1c0,0,0,0-0.1-0.1c0,0,0,0-0.1,0c0,0,0,0-0.1-0.1c0,0,0,0-0.1,0c0,0,0,0,0,0
			c-1-0.5-2-1.6-2.4-2c0.3-0.2,0.5-0.4,0.7-0.6c0.3-0.3,0.4-0.8,0.1-1.1c-0.1-0.2-0.4-0.3-0.6-0.3c-0.2,0-0.3,0.1-0.5,0.2
			c-3.2,2.6-7.3,3.7-9.8,3.7c-0.4,0-0.8,0.4-0.8,0.8c0,0.1,0,0.2,0,0.2C30,22,33.5,25.1,36.7,25.1L36.7,25.1z M39.4,14.2
			c0.3,0.4,1.4,1.6,2.6,2.3c-0.2,4.6-2.8,7.1-5.2,7.1h0c-2.4,0-4.9-2.4-5.2-6.8C33.7,16.6,36.7,15.8,39.4,14.2z"/>
		<path class="st1" d="M41.7,25.1c-0.1,0-0.1,0-0.2,0c-0.2,0-0.4,0.1-0.5,0.2c0,0-1.4,1.3-4.2,1.3c-0.6,0-1.2-0.1-1.9-0.2
			c0,0-0.1,0-0.1,0c-0.4,0-0.7,0.3-0.8,0.6c0,0.2,0,0.4,0.1,0.6s0.3,0.3,0.5,0.3c0.7,0.1,1.5,0.2,2.1,0.2c2.6,0,4.3-0.9,4.9-1.4
			c3.6,1,6,3.5,6,6.4v13.5c0,0.4,0.4,0.8,0.8,0.8c0.4,0,0.8-0.4,0.8-0.8V33.1C49.2,29.3,46.3,26.2,41.7,25.1z"/>
		<path class="st1" d="M11.6,19.3C11.6,19.3,11.6,19.4,11.6,19.3c0.7,4.2,3.6,7.2,6.9,7.2c3.3,0,6.2-3,6.9-7.2c0,0,0,0,0,0
			c0.3-0.2,0.8-0.6,1-1.6c0.2-1,0.2-1.8-0.3-2.3c-0.1-0.1-0.2-0.2-0.3-0.2c0.3-1.5,0.2-3.2-0.4-4.6c-0.4-0.9-1-1.5-1.7-1.7
			c-1-1.6-2.9-2.5-5.3-2.5c-1.2,0-2.5,0.3-3.5,0.7c-3.2,1.6-4.5,4.2-4.1,8.1c-0.4,0.3-0.8,1-0.4,2.5C10.8,18.8,11.3,19.1,11.6,19.3z
			 M12.6,15.6c-0.6-3.4,0.4-5.7,3.1-7C16.5,8.2,17.5,8,18.5,8c0.9,0,3.1,0.2,4.1,2c0.1,0.2,0.3,0.4,0.5,0.4c0.5,0.1,0.8,0.6,1,1
			c0.5,1.1,0.6,2.6,0.2,3.8l-1.8-1.4c0.5-0.6,0.8-1.2,0.9-1.8c0.1-0.4-0.2-0.8-0.6-0.9c-0.1,0-0.1,0-0.2,0c-0.4,0-0.7,0.3-0.8,0.6
			c-0.4,1.8-3.4,4.4-8.6,4.4c-0.4,0-0.8,0.4-0.8,0.8s0.4,0.8,0.8,0.8c3.5,0,6.4-1.1,8.1-2.6l2.8,2.1c0.1,0.1,0.3,0.2,0.5,0.2
			c0.1,0,0.1,0,0.2,0c0.1,0,0.1,0,0.1,0c0,0.1,0,0.2-0.1,0.3c-0.1,0.5-0.2,0.5-0.4,0.7c-0.2,0.1-0.5,0.4-0.6,0.8c0,0,0,0,0,0.1
			c0,0,0,0,0,0c0,0,0,0,0,0c0,0,0,0,0,0c-0.5,3.5-2.8,6-5.3,6s-4.8-2.5-5.3-6c0,0,0,0,0,0c0,0,0,0,0,0c0,0,0-0.1,0-0.1c0,0,0,0,0,0
			c-0.1-0.4-0.4-0.7-0.6-0.8c-0.2-0.1-0.3-0.2-0.4-0.7c-0.1-0.6-0.1-0.8-0.1-0.9c0.2,0,0.4-0.1,0.5-0.3C12.6,16,12.6,15.8,12.6,15.6
			z"/>
		<path class="st1" d="M19.3,28.9c0.2,0,0.4-0.1,0.5-0.2c0.1-0.2,0.2-0.3,0.2-0.6c0-0.4-0.3-0.8-0.8-0.8c0,0-0.2,0-0.2,0
			c-3.5,0-4.5-1.5-4.5-1.6c-0.1-0.3-0.4-0.4-0.7-0.4c-0.1,0-0.1,0-0.2,0c-4.9,1.2-7.5,4.2-7.5,8.7v12.4c0,0.4,0.4,0.8,0.8,0.8
			s0.8-0.4,0.8-0.8V34.2c0-3.6,2-6,5.9-7.1c0.7,0.7,2.3,1.9,5.5,1.9C19.1,28.9,19.2,28.9,19.3,28.9z"/>
		<path class="st1" d="M12.2,35.2c-0.4,0-0.8,0.4-0.8,0.8v10.7c0,0.4,0.4,0.8,0.8,0.8S13,47,13,46.6V36C13,35.5,12.6,35.2,12.2,35.2
			z"/>
		<path class="st1" d="M43.1,35.2c-0.4,0-0.8,0.4-0.8,0.8v10.7c0,0.4,0.4,0.8,0.8,0.8c0.4,0,0.8-0.4,0.8-0.8V36
			C43.9,35.5,43.5,35.2,43.1,35.2z"/>
		<path class="st1" d="M27,22.2c0,0.7,0.2,1.1,0.4,1.4c0.1,0.2,0.4,0.4,0.7,0.4c0.1,0,0.3,0,0.4-0.1c0.2-0.1,0.3-0.3,0.4-0.5
			c0.1-0.2,0-0.4-0.1-0.6c-0.1-0.2-0.2-0.3-0.2-0.7c0-0.4,0.1-0.5,0.2-0.8c0.2-0.3,0.5-0.8,0.5-1.6c0-0.8-0.3-1.3-0.5-1.6
			c-0.2-0.3-0.2-0.4-0.2-0.8c0-0.4,0.1-0.5,0.2-0.8c0.2-0.3,0.5-0.8,0.5-1.6v-0.4c0-4.1,3.3-7.4,7.4-7.4s7.4,3.3,7.4,7.4V15
			c0,0.8,0.3,1.3,0.5,1.6c0.2,0.3,0.2,0.4,0.2,0.8c0,0.4-0.1,0.5-0.2,0.8c-0.2,0.3-0.5,0.8-0.5,1.6c0,0.8,0.3,1.3,0.5,1.6
			c0.2,0.3,0.2,0.4,0.2,0.8c0,0.4-0.1,0.5-0.2,0.8c-0.2,0.3-0.5,0.8-0.5,1.6c0,0.4,0.4,0.8,0.8,0.8c0.4,0,0.8-0.4,0.8-0.8
			c0-0.4,0.1-0.5,0.2-0.8c0.2-0.3,0.5-0.8,0.5-1.6c0-0.8-0.3-1.3-0.5-1.6c-0.2-0.3-0.2-0.4-0.2-0.8s0.1-0.5,0.2-0.8
			c0.2-0.3,0.5-0.8,0.5-1.6c0-0.8-0.3-1.3-0.5-1.6c-0.2-0.3-0.2-0.4-0.2-0.8v-0.4c0-4.9-4-9-9-9s-9,4-9,9V15c0,0.4-0.1,0.5-0.2,0.8
			c-0.2,0.3-0.5,0.8-0.5,1.6c0,0.8,0.3,1.3,0.5,1.6c0.2,0.3,0.2,0.4,0.2,0.8s-0.1,0.5-0.2,0.8C27.3,20.9,27,21.4,27,22.2z"/>
		<path class="st1" d="M32.9,33.2c0.1-0.4-0.2-0.8-0.7-0.9c0,0-0.1,0-0.1,0c-0.4,0-0.7,0.3-0.8,0.7c-0.4,2.6-2.1,4.5-4,4.5
			c-1.9,0-3.6-1.9-4-4.5c-0.1-0.4-0.4-0.7-0.8-0.7c0,0-0.1,0-0.1,0c-0.4,0.1-0.7,0.5-0.7,0.9c0.5,3.4,2.8,5.9,5.5,5.9
			C30.1,39.1,32.4,36.6,32.9,33.2z"/>
		<path class="st1" d="M24.3,38.6c0,0-0.1,0-0.1,0l-0.1,0c-3.3,0.6-5.3,3.3-5.6,7.6v0.4c0,0.4,0.4,0.8,0.8,0.8s0.8-0.4,0.8-0.8
			l0-0.4c0-0.8,0.2-1.6,0.4-2.4l1.2,0.3v2.5c0,0.4,0.4,0.8,0.8,0.8s0.8-0.4,0.8-0.8v-3.1c0-0.4-0.3-0.7-0.6-0.8l-1.5-0.3
			c0.6-1.1,1.7-2,3.3-2.2l0.1,0c0.4-0.1,0.7-0.5,0.6-0.9C25,38.9,24.7,38.6,24.3,38.6z"/>
		<path class="st1" d="M30.8,38.7l-0.1,0c0,0-0.1,0-0.1,0c-0.4,0-0.7,0.3-0.8,0.6c-0.1,0.4,0.2,0.8,0.6,0.9l0.1,0
			c1.6,0.3,2.6,1.1,3.3,2.2l-1.6,0.3c-0.4,0.1-0.6,0.4-0.6,0.8v3.1c0,0.4,0.4,0.8,0.8,0.8c0.4,0,0.8-0.4,0.8-0.8v-2.5l1.2-0.3
			c0.2,0.8,0.3,1.6,0.4,2.3v0.4c0,0.4,0.4,0.8,0.8,0.8c0.4,0,0.8-0.4,0.8-0.8l0-0.4C36.2,41.9,34.2,39.2,30.8,38.7z"/>
		<path class="st1" d="M33.2,32.1c0.4,0,0.8-0.4,0.8-0.8c0-4.1-2.8-7.1-6.7-7.1c-0.8,0-3.6,0.2-4.7,2.3c-1.6,0.6-2.3,2.6-2.1,5.3
			c0,0.4,0.4,0.7,0.8,0.7c0,0,0,0,0.1,0c0.2,0,0.4-0.1,0.5-0.3c0.1-0.2,0.2-0.4,0.2-0.6c-0.2-2.1,0.3-3.5,1.3-3.8
			c0.2-0.1,0.4-0.2,0.5-0.5c0.6-1.5,2.7-1.6,3.4-1.6c3,0,5.2,2.3,5.2,5.6C32.5,31.7,32.8,32.1,33.2,32.1z"/>
		<path class="st1" d="M22.8,31.9c0.1,0.2,0.2,0.4,0.4,0.5c0.1,0.1,0.3,0.1,0.4,0.1c0.3,0,0.5-0.1,0.7-0.4l0.8-1.3
			c1.3,0.6,3.5,1.3,6.4,1.3c0.4,0,0.8-0.4,0.8-0.8c0-0.4-0.4-0.8-0.8-0.8c-4,0-6.7-1.6-6.7-1.7c-0.1-0.1-0.3-0.1-0.4-0.1
			c-0.3,0-0.5,0.1-0.7,0.4c-0.2,0.3-0.1,0.6,0,0.9l-0.8,1.3C22.8,31.5,22.7,31.7,22.8,31.9z"/>
	</g>
</g>
</svg>
