<?xml version="1.0" encoding="utf-8"?>
<!-- Generator: Adobe Illustrator 27.9.0, SVG Export Plug-In . SVG Version: 6.00 Build 0)  -->
<svg version="1.1" id="레이어_1" xmlns="http://www.w3.org/2000/svg" xmlns:xlink="http://www.w3.org/1999/xlink" x="0px"
	 y="0px" viewBox="0 0 59.4 55.9" style="enable-background:new 0 0 59.4 55.9;" xml:space="preserve">
<style type="text/css">
	.st0{fill:#EDC8D6;}
	.st1{fill:#181818;stroke:#060001;stroke-width:0.2;stroke-miterlimit:10;}
</style>
<g>
	<path class="st0" d="M52.7,48c0,1-0.8,1.9-1.9,1.9H37.3c-1,0-1.9-0.8-1.9-1.9V34.4c0-1,0.8-1.9,1.9-1.9h13.5c1,0,1.9,0.8,1.9,1.9
		V48z"/>
	<g>
		<g>
			<path class="st1" d="M26.5,45.1c-0.8,0-1.7-0.1-2.5-0.2l-0.5-0.1v-4.5h1.3v3.4c1.2,0.2,2.3,0.2,3.5,0v-3.4h1.3v4.5L29,44.8
				C28.1,45,27.3,45.1,26.5,45.1z"/>
			<path class="st1" d="M15.5,26.7l-1.2-0.5c2.2-4.8,7-7.8,12.2-7.8c5.2,0,10,3.1,12.2,7.8l-1.2,0.5c-2-4.3-6.3-7.1-11-7.1
				C21.7,19.6,17.4,22.4,15.5,26.7z"/>
			<g>
				<g>
					<path class="st1" d="M39.2,40.9H30v-5.4c0-0.6,0.1-1.3,0.4-1.8c0.2-0.6,0.6-1.1,1-1.6l6.1-6.1c0.5-0.5,1.2-0.8,1.9-0.8
						c0.7,0,1.4,0.3,1.9,0.8c0.5,0.5,0.8,1.2,0.8,1.9c0,0.7-0.3,1.4-0.8,1.9l-4.5,4.5c-0.5,0.5-1.2,0.8-1.9,0.8v-1.3
						c0.4,0,0.7-0.1,1-0.4l4.5-4.5c0.3-0.3,0.4-0.6,0.4-1c0-0.4-0.1-0.7-0.4-1c-0.3-0.3-0.6-0.4-1-0.4c-0.4,0-0.7,0.1-1,0.4L32.3,33
						c-0.3,0.3-0.6,0.7-0.8,1.1c-0.2,0.4-0.3,0.9-0.3,1.3v4.1h6.6c0.1-0.7,0.2-1.3,0.5-2c0.3-0.8,0.9-1.6,1.5-2.2l4.5-4.5
						c0.1-0.1,0.2-0.3,0.3-0.5c0.1-0.2,0.1-0.4,0.1-0.5V18c0-0.4-0.1-0.7-0.4-1c-0.3-0.3-0.6-0.4-1-0.4s-0.7,0.1-1,0.4
						c-0.3,0.3-0.4,0.6-0.4,1v6h-1.3v-6c0-0.7,0.3-1.4,0.8-1.9c0.5-0.5,1.2-0.8,1.9-0.8c0.7,0,1.4,0.3,1.9,0.8
						c0.5,0.5,0.8,1.2,0.8,1.9v11.9c0,0.4-0.1,0.7-0.2,1.1c-0.1,0.3-0.3,0.6-0.6,0.9l-4.5,4.5c-0.5,0.5-0.9,1.1-1.2,1.8
						c-0.3,0.7-0.4,1.4-0.4,2.1L39.2,40.9L39.2,40.9z"/>
					<polygon class="st1" points="41,44.2 39.7,44.2 39.7,40.9 29.5,40.9 29.5,44.2 28.2,44.2 28.2,39.6 41,39.6 					"/>
				</g>
				<g>
					<path class="st1" d="M22.9,40.9h-9.2v-0.7c0-0.7-0.1-1.5-0.4-2.1c-0.3-0.7-0.7-1.3-1.2-1.8l-4.5-4.5c-0.3-0.3-0.5-0.6-0.6-0.9
						c-0.1-0.3-0.2-0.7-0.2-1.1V18c0-0.7,0.3-1.4,0.8-1.9c0.5-0.5,1.2-0.8,1.9-0.8c0.7,0,1.4,0.3,1.9,0.8c0.5,0.5,0.8,1.2,0.8,1.9v6
						h-1.3v-6c0-0.4-0.1-0.7-0.4-1c-0.3-0.3-0.6-0.4-1-0.4s-0.7,0.1-1,0.4C8.2,17.2,8,17.6,8,18v11.9c0,0.2,0,0.4,0.1,0.5
						c0.1,0.2,0.2,0.3,0.3,0.5l4.5,4.5c0.6,0.6,1.1,1.4,1.5,2.2c0.3,0.6,0.4,1.3,0.5,2h6.6v-4.1c0-0.5-0.1-0.9-0.3-1.3
						c-0.2-0.4-0.4-0.8-0.8-1.1l-6.1-6.2c-0.3-0.3-0.6-0.4-1-0.4c-0.4,0-0.7,0.1-1,0.4c-0.3,0.3-0.4,0.6-0.4,1c0,0.4,0.1,0.7,0.4,1
						l4.5,4.5c0.3,0.3,0.6,0.4,1,0.4v1.3c-0.7,0-1.4-0.3-1.9-0.8l-4.5-4.5c-0.5-0.5-0.8-1.2-0.8-1.9c0-0.7,0.3-1.4,0.8-1.9
						c0.5-0.5,1.2-0.8,1.9-0.8c0.7,0,1.4,0.3,1.9,0.8l6.2,6.2c0.5,0.4,0.8,1,1,1.6c0.2,0.6,0.4,1.2,0.4,1.8L22.9,40.9L22.9,40.9z"/>
					<polygon class="st1" points="24.7,44.2 23.4,44.2 23.4,40.9 13.2,40.9 13.2,44.2 11.9,44.2 11.9,39.6 24.7,39.6 					"/>
				</g>
			</g>
			<g>
				<g>
					<g>
						<path class="st1" d="M21,17.5L21,17.5c-1.4,0-2.7-0.5-3.7-1.5c-0.8-0.8-1.3-1.8-1.5-3l-1.2-7l7,1.2c1.2,0.2,2.2,0.7,3,1.5
							c2,2,2,5.3,0,7.3C23.7,17,22.4,17.5,21,17.5z M16.3,7.7l0.9,5.2c0.2,0.9,0.5,1.7,1.1,2.2c0.7,0.7,1.7,1.1,2.7,1.1
							c1,0,2-0.4,2.7-1.1c1.5-1.5,1.5-3.9,0-5.4c-0.6-0.6-1.3-0.9-2.2-1.1L16.3,7.7z"/>
						<path class="st1" d="M31.9,17.5c-1.4,0-2.7-0.5-3.7-1.5c-2-2-2-5.3,0-7.3c0.8-0.8,1.8-1.3,3-1.5l7-1.2L37,13
							c-0.2,1.2-0.7,2.2-1.5,3C34.6,17,33.3,17.5,31.9,17.5z M36.6,7.7l-5.2,0.9c-0.9,0.2-1.7,0.5-2.2,1.1c-1.5,1.5-1.5,3.9,0,5.4
							c0.7,0.7,1.7,1.1,2.7,1.1c1,0,2-0.4,2.7-1.1c0.6-0.6,0.9-1.3,1.1-2.2L36.6,7.7z"/>
					</g>
				</g>
				<g>
					<rect x="25.8" y="17.8" class="st1" width="1.3" height="13.9"/>
					<polygon class="st1" points="26.5,18.7 20.5,12.8 21.5,11.9 26.5,16.8 31.4,11.9 32.4,12.8 					"/>
				</g>
			</g>
		</g>
	</g>
</g>
</svg>
