<?xml version="1.0" encoding="utf-8"?>
<!-- Generator: Adobe Illustrator 27.9.0, SVG Export Plug-In . SVG Version: 6.00 Build 0)  -->
<svg version="1.1" id="레이어_1" xmlns="http://www.w3.org/2000/svg" xmlns:xlink="http://www.w3.org/1999/xlink" x="0px"
	 y="0px" viewBox="0 0 59.4 55.9" style="enable-background:new 0 0 59.4 55.9;" xml:space="preserve">
<style type="text/css">
	.st0{fill:#EDC8D6;}
	.st1{fill-rule:evenodd;clip-rule:evenodd;fill:#060001;stroke:#060001;stroke-width:0.4;stroke-miterlimit:10;}
</style>
<g>
	<path class="st0" d="M51.6,40.6c0,4.9-4,8.9-8.9,8.9s-8.9-4-8.9-8.9s4-8.9,8.9-8.9C47.6,31.7,51.6,35.7,51.6,40.6z"/>
	<path class="st1" d="M34.1,26.6c1.7,0,3.3,0.7,4.4,1.8l0,0l0,0c1,1,1.6,2.3,1.8,3.7h5.4v-5.4c0-0.5-0.2-1-0.5-1.3
		c-0.2-0.2-0.6-0.4-1-0.4H29c-0.5,1.1-1.2,2.1-2,2.9c-0.1,0.1-0.2,0.2-0.3,0.3l2.3,1.2c0.2-0.3,0.5-0.6,0.8-0.9l0,0
		C30.8,27.4,32.4,26.6,34.1,26.6L34.1,26.6z M19.7,8.4h0.7c0.3,0,0.6,0.1,0.9,0.4c0.2,0.2,0.4,0.5,0.4,0.9v0.2h0.2
		c0.3,0,0.6,0.1,0.9,0.4c0.2,0.2,0.4,0.5,0.4,0.9l0,0v0.7c0,0.3-0.1,0.6-0.4,0.9c-0.2,0.2-0.5,0.4-0.9,0.4h-0.2v0.2
		c0,0.3-0.1,0.6-0.4,0.9c-0.2,0.2-0.5,0.4-0.9,0.4h-0.7c-0.3,0-0.6-0.1-0.9-0.4c-0.2-0.2-0.4-0.5-0.4-0.9v-0.2h-0.2
		c-0.3,0-0.6-0.1-0.9-0.4c-0.2-0.2-0.4-0.5-0.4-0.9V11c0-0.3,0.1-0.6,0.4-0.9l0,0c0.2-0.2,0.5-0.3,0.8-0.3h0.2V9.6
		c0-0.3,0.1-0.6,0.4-0.9C19,8.5,19.3,8.4,19.7,8.4L19.7,8.4z M20.3,9.6h-0.7l0,0l0,0v0.8c0,0.3-0.3,0.6-0.6,0.6h-0.8l0,0l0,0l0,0
		v0.7l0,0l0,0H19c0.3,0,0.6,0.3,0.6,0.6v0.8l0,0l0,0h0.7l0,0l0,0v-0.8c0-0.3,0.3-0.6,0.6-0.6h0.8l0,0l0,0V11l0,0l0,0l0,0H21
		c-0.3,0-0.6-0.3-0.6-0.6L20.3,9.6C20.4,9.6,20.4,9.6,20.3,9.6C20.4,9.6,20.3,9.6,20.3,9.6L20.3,9.6z M27.7,31.7
		c0.6,0,1.1,0.2,1.4,0.6l0,0c0.3,0.4,0.6,0.8,0.6,1.4c0,0.6-0.2,1.1-0.6,1.4c-0.2,0.2-0.5,0.4-0.7,0.5v2.5h1.2h0.6v0.6V43
		c0,0.6-0.2,1.1-0.6,1.4l0,0l0,0c-0.4,0.4-0.9,0.6-1.4,0.6h-2.1c-0.6,0-1.1-0.2-1.4-0.6l0,0c-0.4-0.4-0.6-0.9-0.6-1.4v-4.3v-0.6h0.6
		h2.5v-2.5c-0.4-0.1-0.7-0.3-0.9-0.5l0,0l0,0c-0.4-0.4-0.6-0.9-0.6-1.4c0-0.6,0.2-1.1,0.6-1.4l0,0C26.7,31.9,27.2,31.7,27.7,31.7
		L27.7,31.7z M28.3,33.2c-0.1-0.1-0.4-0.2-0.6-0.2s-0.4,0.1-0.6,0.2l0,0c-0.1,0.1-0.2,0.4-0.2,0.6s0.1,0.4,0.2,0.6l0,0
		c0.1,0.1,0.3,0.2,0.4,0.2s0.2-0.1,0.2-0.1c0.1,0,0.1,0,0.2,0s0.2-0.1,0.3-0.2c0.1-0.1,0.2-0.4,0.2-0.6
		C28.6,33.5,28.5,33.3,28.3,33.2L28.3,33.2L28.3,33.2z M29.1,43v-3.7h-3.8V43c0,0.2,0.1,0.4,0.2,0.6l0,0c0.2,0.2,0.4,0.2,0.6,0.2
		h2.1c0.2,0,0.4-0.1,0.6-0.2l0,0C29,43.5,29.1,43.3,29.1,43L29.1,43z M10.5,7.8c3.2-1,6.3-1.5,9.5-1.5s6.3,0.5,9.5,1.5L30,8
		l-0.1,0.5l-1.4,7.4v0.2c0.6,1,0.9,2,1.1,3.2v0.2l0,0c0.1,0.5,0.1,1,0.1,1.5l0,0c0.4-0.4,1-0.6,1.6-0.6h5.4c0.7,0,1.4,0.3,1.8,0.8
		l0,0c0.5,0.5,0.8,1.1,0.8,1.8v0.8h4.8c0.8,0,1.5,0.4,2,0.9c0.5,0.6,0.8,1.3,0.8,2.1V39c0,0.8-0.3,1.6-0.8,2.1
		c-0.5,0.6-1.2,0.9-2,0.9h-12v5v0.6h-0.6h-7.3h-8.7H8.4H7.8V47V31.5v-0.4l0.3-0.2l5.2-2.7c-0.1-0.1-0.2-0.2-0.3-0.3
		c-1.8-1.8-2.9-4.2-2.9-6.9c0-1.6,0.4-3.2,1.1-4.6l0,0l0.1-0.2c0.1-0.1,0.1-0.2,0.2-0.3L10,8.5L10,8L10.5,7.8L10.5,7.8z M27.3,16.4
		H13.1c1.3,1,2.7,1.8,4.2,2.4c1.7,0.7,3.6,1,5.5,1c1,0,2.1-0.1,3-0.3c0.8-0.2,1.7-0.4,2.4-0.7C28.1,17.9,27.7,17.1,27.3,16.4
		L27.3,16.4z M20,7.5c-2.9,0-5.8,0.4-8.6,1.3l1.3,6.4h14.8l1.2-6.4C25.8,7.9,22.9,7.5,20,7.5L20,7.5z M20.6,42.7L20.6,42.7l4.1-13
		c0.3-0.2,0.7-0.4,1-0.6l5.4,2.8v14.6h-6.7h-3.8L20.6,42.7L20.6,42.7z M19.4,46.4v-4l-4-12.8c-0.3-0.2-0.7-0.4-1-0.6L9,31.8v14.6
		h6.7H19.4L19.4,46.4z M28.6,20c0,0.3,0.1,0.7,0.1,1c0,2.4-1,4.5-2.5,6.1c-1.6,1.6-3.7,2.5-6.1,2.5s-4.5-1-6.1-2.5
		c-1.6-1.6-2.5-3.7-2.5-6.1c0-1.4,0.3-2.6,0.9-3.8c1.4,1.1,2.9,2,4.6,2.7c1.9,0.7,3.9,1.1,6,1.1c1.1,0,2.2-0.1,3.3-0.3
		C26.9,20.5,27.8,20.3,28.6,20L28.6,20z M23.2,30.3c-1,0.3-2.1,0.5-3.2,0.5s-2.2-0.2-3.2-0.5L20,40.5L23.2,30.3L23.2,30.3z
		 M32.2,40.9h12c0.4,0,0.8-0.2,1.1-0.5s0.5-0.8,0.5-1.3v-5.6h-5.4c-0.1,1.5-0.8,2.9-1.8,4l0,0l0,0c-1.1,1.1-2.7,1.8-4.4,1.8
		c-0.7,0-1.3-0.1-1.9-0.3L32.2,40.9L32.2,40.9z M32.2,37.6v-2.1c0.1,0.3,0.2,0.6,0.4,0.8c0.3,0.3,0.6,0.4,1,0.4h0.9
		c0.4,0,0.7-0.1,1-0.4l0,0c0.3-0.3,0.4-0.6,0.4-1v-0.5h0.5c0.4,0,0.8-0.2,1-0.4l0,0c0.3-0.3,0.4-0.6,0.4-1v-0.9l0,0
		c0-0.4-0.2-0.8-0.4-1c-0.3-0.3-0.6-0.4-1-0.4H36v-0.5c0-0.4-0.2-0.8-0.4-1c-0.3-0.3-0.6-0.4-1-0.4h-0.9c-0.4,0-0.8,0.2-1,0.4
		c-0.3,0.3-0.4,0.6-0.4,1V31H32l-0.2-0.1l-1.9-1c0.2-0.2,0.3-0.4,0.5-0.6l0,0c0.9-0.9,2.2-1.5,3.6-1.5s2.7,0.6,3.6,1.5l0,0
		c0.9,0.9,1.5,2.2,1.5,3.6c0,1.4-0.6,2.7-1.5,3.6l0,0C36.7,37.4,35.4,38,34,38C33.4,38,32.8,37.9,32.2,37.6L32.2,37.6z M32.2,32.2
		h0.6c0.3,0,0.6-0.3,0.6-0.6v-1.1c0-0.1,0-0.1,0.1-0.2c0,0,0.1-0.1,0.2-0.1h0.9c0.1,0,0.1,0,0.2,0.1c0,0,0.1,0.1,0.1,0.2v1.1
		c0,0.3,0.3,0.6,0.6,0.6h1.1c0.1,0,0.1,0,0.2,0.1c0,0,0.1,0.1,0.1,0.2l0,0v0.9c0,0.1,0,0.1-0.1,0.2l0,0l0,0c0,0-0.1,0.1-0.2,0.1
		h-1.1c-0.3,0-0.6,0.3-0.6,0.6v1.1c0,0.1,0,0.1-0.1,0.2l0,0c0,0-0.1,0.1-0.2,0.1h-0.9c-0.1,0-0.1,0-0.2-0.1c0,0-0.1-0.1-0.1-0.2
		v-1.1c0-0.3-0.3-0.6-0.6-0.6h-0.6V32.2L32.2,32.2z M30,23.8h8.2V23c0-0.4-0.2-0.7-0.4-1l0,0l0,0c-0.3-0.3-0.6-0.4-1-0.4h-5.4
		c-0.4,0-0.7,0.2-1,0.4S30,22.7,30,23V23.8L30,23.8z"/>
</g>
</svg>
