<?xml version="1.0" encoding="utf-8"?>
<!-- Generator: Adobe Illustrator 27.9.0, SVG Export Plug-In . SVG Version: 6.00 Build 0)  -->
<svg version="1.1" id="레이어_1" xmlns="http://www.w3.org/2000/svg" xmlns:xlink="http://www.w3.org/1999/xlink" x="0px"
	 y="0px" viewBox="0 0 60 56" style="enable-background:new 0 0 60 56;" xml:space="preserve">
<style type="text/css">
	.st0{fill:#EDC8D6;}
	.st1{fill:#040000;}
</style>
<g>
	<path class="st0" d="M54.7,49.1c0,1-0.8,1.9-1.9,1.9H39.3c-1,0-1.9-0.8-1.9-1.9V35.6c0-1,0.8-1.9,1.9-1.9h13.5c1,0,1.9,0.8,1.9,1.9
		V49.1z"/>
	<path class="st1" d="M33.4,19.3c-0.2-0.2-0.2-0.4-0.2-0.6c0-0.2,0.1-0.4,0.3-0.6c0,0,0,0,0,0c0.3-0.3,0.9-0.3,1.2,0.1
		c0.3,0.4,0.3,0.9-0.1,1.2c-0.2,0.1-0.4,0.2-0.6,0.2C33.8,19.6,33.6,19.5,33.4,19.3z M43.9,31v3.9c1.8-0.7,4-0.5,5.6,0.7
		c0.4,0.3,0.5,0.8,0.2,1.2c-0.3,0.4-0.8,0.5-1.2,0.2c-1.3-1-3.1-1-4.6-0.2l-0.2,0.1c-0.9,0.6-2,0.8-3,0.8c-1.1,0-2.1-0.3-3-0.8
		l-0.4-0.3c-1.3-0.8-3-0.8-4.3,0l-0.4,0.3c-1.8,1.1-4.2,1.1-6.1,0l-0.4-0.3c-1.3-0.8-3-0.8-4.3,0l-0.4,0.3c-1.8,1.1-4.2,1.1-6,0
		l-0.2-0.1c-1.4-0.9-3.2-0.8-4.6,0.2c-0.4,0.3-0.9,0.2-1.2-0.2c-0.3-0.4-0.2-0.9,0.2-1.2c1.6-1.2,3.7-1.4,5.6-0.7V31h-5.1
		c-0.5,0-0.8-0.4-0.8-0.8v-3.4c0-0.5,0.4-0.8,0.8-0.8h1L14,14.7l-3.1,4.9c-0.2,0.3-0.4,0.4-0.7,0.4c-0.2,0-0.3,0-0.5-0.1
		c-0.4-0.3-0.5-0.8-0.3-1.2l5.9-9.3c0,0,0,0,0,0c0,0,0,0,0,0c0,0,0,0,0-0.1l0,0c0,0,0,0,0,0c0,0,0,0,0,0c0,0,0,0,0.1,0c0,0,0,0,0,0
		c0,0,0,0,0,0c0,0,0,0,0,0c0,0,0,0,0.1,0c0,0,0,0,0,0c0,0,0,0,0,0c0,0,0,0,0,0c0,0,0,0,0.1,0c0,0,0,0,0,0c0,0,0,0,0,0c0,0,0,0,0,0
		c0,0,0.1,0,0.1,0c0,0,0,0,0.1,0c0,0,0,0,0,0h0.8V8.2c0-0.5,0.4-0.8,0.8-0.8s0.8,0.4,0.8,0.8V9h0.8c0,0,0,0,0.1,0c0,0,0.1,0,0.1,0
		c0,0,0.1,0,0.1,0c0,0,0,0,0.1,0c0,0,0.1,0,0.1,0c0,0,0,0,0.1,0c0,0,0,0,0.1,0.1c0,0,0,0,0.1,0c0,0,0,0,0,0c0,0,0,0,0,0c0,0,0,0,0,0
		c0,0,0,0,0.1,0.1c0,0,0,0,0,0c0,0,0,0,0,0l4.3,7.2c1.1,1.8,3,2.9,5.1,2.9c0.4,0,0.9-0.1,1.3-0.1c0.4-0.1,0.9,0.2,1,0.6
		c0.1,0.2,0,0.4-0.1,0.6c-0.1,0.2-0.3,0.3-0.5,0.4c-0.5,0.1-1.1,0.2-1.7,0.2h0c-2.7,0-5.1-1.4-6.5-3.7l-1.4-2.4l2.7,10.7h10.5
		l2.7-10.8l-0.8,1.3c-0.2,0.3-0.4,0.4-0.7,0.4c-0.2,0-0.3,0-0.4-0.1c-0.4-0.2-0.5-0.8-0.3-1.2L39,9.4c0,0,0,0,0,0c0,0,0,0,0,0
		c0,0,0,0,0-0.1c0,0,0,0,0,0c0,0,0,0,0,0c0,0,0,0,0.1-0.1c0,0,0,0,0.1-0.1c0,0,0,0,0.1,0c0,0,0.1,0,0.1,0c0,0,0,0,0.1,0
		c0,0,0.1,0,0.1,0c0,0,0.1,0,0.1,0c0,0,0,0,0.1,0h0.8V8.2c0-0.5,0.4-0.8,0.8-0.8c0.5,0,0.8,0.4,0.8,0.8V9h0.8c0,0,0,0,0,0
		c0,0,0,0,0.1,0c0,0,0.1,0,0.1,0c0,0,0,0,0,0c0,0,0,0,0,0c0,0,0,0,0,0c0,0,0,0,0.1,0c0,0,0,0,0,0c0,0,0,0,0,0c0,0,0,0,0,0
		c0,0,0,0,0.1,0c0,0,0,0,0,0c0,0,0,0,0,0c0,0,0,0,0,0c0,0,0,0,0.1,0c0,0,0,0,0,0c0,0,0,0,0,0c0,0,0,0,0,0.1c0,0,0,0,0,0c0,0,0,0,0,0
		l5.9,9.3c0.3,0.4,0.1,0.9-0.3,1.2C49.3,20,49.2,20,49,20c-0.3,0-0.6-0.1-0.7-0.4l-3.1-4.9L48,25.9h1c0.5,0,0.8,0.4,0.8,0.8v3.4
		c0,0.5-0.4,0.8-0.8,0.8L43.9,31L43.9,31z M11,29.3h4.2v-1.7h-3.4H11V29.3z M16.9,31v4.8c0.5,0.2,1.1,0.3,1.7,0.3V31v-0.8v-0.8v-1.7
		v-0.8v-0.8V10.7h-0.8h-0.8v15.2v0.8v0.8v1.7v0.8L16.9,31L16.9,31z M23.7,27.6h-3.4v1.7h18.6v-1.7h-3.4H23.7z M42.2,30.1v-0.8v-1.7
		v-0.8v-0.8V10.7h-0.8h-0.8v15.2v0.8v0.8v1.7v0.8V31V36c0.6,0,1.2-0.1,1.7-0.3V31L42.2,30.1L42.2,30.1z M48.2,27.6h-0.8h-3.4v1.7
		h4.2C48.2,29.3,48.2,27.6,48.2,27.6z M43.9,16.7v9.2h2.3L43.9,16.7z M36.6,25.9h2.3v-9.2L36.6,25.9z M20.3,16.7v9.2h2.3L20.3,16.7z
		 M12.9,25.9h2.3v-9.2L12.9,25.9z M38.6,35.5c0.1,0.1,0.2,0.1,0.3,0.1V31H20.3v4.6c0.1,0,0.2-0.1,0.3-0.1l0.4-0.3
		c1.8-1.1,4.2-1.1,6.1,0l0.4,0.3c1.3,0.8,3,0.8,4.3,0l0.4-0.3c1.8-1.1,4.2-1.1,6,0L38.6,35.5z M39.8,41.9c0,0,0.1,0,0.1,0
		c0.4,0,0.8-0.3,0.8-0.7c0-0.2,0-0.4-0.2-0.6c-0.1-0.2-0.3-0.3-0.5-0.3c0,0,0,0,0,0c-0.5-0.1-0.9,0.3-1,0.7
		C39,41.4,39.4,41.8,39.8,41.9C39.8,41.9,39.8,41.9,39.8,41.9z M46.3,38.8c-0.1,0-0.2,0-0.3,0c-1.1,0-2.1,0.3-3,0.8l-0.2,0.1
		c0,0-0.1,0-0.1,0.1c-0.2,0.1-0.3,0.3-0.4,0.5c-0.1,0.2,0,0.4,0.1,0.6c0.2,0.3,0.4,0.4,0.7,0.4c0.1,0,0.3,0,0.4-0.1
		c0,0,0.1,0,0.1-0.1L44,41c0.6-0.4,1.4-0.6,2.1-0.6c0.1,0,0.1,0,0.2,0c0.5,0,0.9-0.3,0.9-0.8C47.2,39.2,46.8,38.8,46.3,38.8z
		 M15.4,41.1c1.8,1.1,4.2,1.1,6,0l0.4-0.3c1.3-0.8,3-0.8,4.3,0l0.4,0.3c0.9,0.5,1.9,0.8,3,0.8c1.1,0,2.1-0.3,3-0.8l0.4-0.3
		c1-0.6,2.4-0.8,3.6-0.3c0.4,0.2,0.9-0.1,1.1-0.5c0.2-0.4-0.1-0.9-0.5-1.1c-1.6-0.6-3.5-0.4-5,0.5l-0.4,0.3c-1.3,0.8-3,0.8-4.3,0
		L27,39.4c-1.8-1.1-4.2-1.1-6.1,0l-0.4,0.3c-1.3,0.8-3,0.8-4.3,0l-0.2-0.1c-1-0.6-2.1-0.9-3.3-0.8c-0.5,0-0.8,0.4-0.8,0.9
		c0,0.5,0.4,0.8,0.9,0.8c0.1,0,0.1,0,0.2,0c0.8,0,1.5,0.2,2.1,0.6L15.4,41.1z M43.1,43.8l-0.2,0.1c-1.3,0.8-3,0.8-4.3,0l-0.4-0.3
		c-1.8-1.1-4.2-1.1-6,0l-0.4,0.3c-1.3,0.8-3,0.8-4.3,0L27,43.7c-1.8-1.1-4.2-1.1-6.1,0l-0.4,0.3c-1.3,0.8-3,0.8-4.3,0l-0.2-0.1
		c-0.4-0.2-0.9-0.1-1.2,0.3c-0.2,0.4-0.1,0.9,0.3,1.2l0.2,0.1c1.8,1.1,4.2,1.1,6,0l0.4-0.3c1.3-0.8,3-0.8,4.3,0l0.4,0.3
		c1.8,1.1,4.2,1.1,6.1,0l0.4-0.3c1.3-0.8,3-0.8,4.3,0l0.4,0.3c0.9,0.6,2,0.8,3,0.8c1,0,2.1-0.3,3-0.8l0.2-0.1
		c0.4-0.2,0.5-0.8,0.3-1.2C44,43.7,43.5,43.6,43.1,43.8z"/>
</g>
</svg>
