<?xml version="1.0" encoding="utf-8"?>
<!-- Generator: Adobe Illustrator 27.9.0, SVG Export Plug-In . SVG Version: 6.00 Build 0)  -->
<svg version="1.1" id="레이어_1" xmlns="http://www.w3.org/2000/svg" xmlns:xlink="http://www.w3.org/1999/xlink" x="0px"
	 y="0px" viewBox="0 0 66.8 55.9" style="enable-background:new 0 0 66.8 55.9;" xml:space="preserve">
<style type="text/css">
	.st0{fill:#EDC8D6;}
	.st1{fill:#040000;}
</style>
<g>
	<path class="st0" d="M55.8,47.6c0,1-0.8,1.9-1.9,1.9H40.4c-1,0-1.9-0.8-1.9-1.9V34.1c0-1,0.8-1.9,1.9-1.9H54c1,0,1.9,0.8,1.9,1.9
		v13.5H55.8z"/>
	<g>
		<path class="st1" d="M20.9,44.7c-0.2,0-0.4-0.1-0.6-0.3c-0.1-0.2-0.2-0.4-0.2-0.6L23,18.3c0-0.4,0.4-0.7,0.8-0.7H37
			c0.4,0,0.7,0.3,0.8,0.7l2.8,25.5c0,0.1,0,0.1,0,0.1c0,0.4-0.3,0.8-0.8,0.8C39.8,44.7,20.9,44.7,20.9,44.7z M21.8,43.1H39l-2.7-24
			H24.5L21.8,43.1z"/>
		<path class="st1" d="M23.8,19.1c-0.4,0-0.8-0.3-0.8-0.8v-5.7c0-0.4,0.3-0.8,0.8-0.8H37c0.4,0,0.8,0.3,0.8,0.8v5.7
			c0,0.4-0.3,0.8-0.8,0.8H23.8z M24.5,17.6h11.7v-4.1H24.5V17.6z"/>
		<path class="st1" d="M23.8,13.5c-0.4,0-0.8-0.3-0.8-0.8V8.9c0-0.4,0.3-0.8,0.8-0.8H37c0.4,0,0.8,0.3,0.8,0.8v3.8
			c0,0.4-0.3,0.8-0.8,0.8H23.8z M24.5,11.9h11.7V9.7H24.5V11.9z"/>
		<path class="st1" d="M23.8,13.5c-0.4,0-0.8-0.3-0.8-0.8V8.9c0-4.1,3.3-7.4,7.4-7.4s7.4,3.3,7.4,7.4v3.8c0,0.4-0.3,0.8-0.8,0.8
			H23.8z M30.4,3.1c-3.2,0-5.8,2.6-5.8,5.8v3h11.7v-3C36.2,5.7,33.6,3.1,30.4,3.1z"/>
		<path class="st1" d="M26.6,44.7c-0.4,0-0.8-0.3-0.8-0.8v-6.6c0-2.5,2-4.6,4.6-4.6c2.5,0,4.6,2,4.6,4.6v6.6c0,0.4-0.3,0.8-0.8,0.8
			H26.6z M30.4,34.3c-1.7,0-3,1.3-3,3v5.8h6v-5.8C33.4,35.6,32.1,34.3,30.4,34.3z"/>
		<path class="st1" d="M9.6,44.7c-0.4,0-0.8-0.3-0.8-0.8s0.3-0.8,0.8-0.8h41.6c0.4,0,0.8,0.3,0.8,0.8s-0.3,0.8-0.8,0.8H9.6z"/>
		<path class="st1" d="M30.4,28.6c-2,0-3.6-1.6-3.6-3.6s1.6-3.6,3.6-3.6S34,23,34,25S32.4,28.6,30.4,28.6z M30.4,22.9
			c-1.1,0-2.1,0.9-2.1,2.1c0,1.1,0.9,2.1,2.1,2.1c1.1,0,2.1-0.9,2.1-2.1C32.5,23.9,31.5,22.9,30.4,22.9z"/>
		<path class="st1" d="M39.9,12.5c-0.3,0-0.5-0.1-0.7-0.4c-0.2-0.4-0.1-0.8,0.2-1.1L47,6.4c0.1-0.1,0.3-0.1,0.4-0.1
			c0.3,0,0.5,0.1,0.7,0.4c0.2,0.4,0.1,0.8-0.2,1.1l-7.6,4.7C40.1,12.5,40,12.5,39.9,12.5z"/>
		<path class="st1" d="M47.4,21c-0.1,0-0.3,0-0.4-0.1l-7.6-4.7c-0.4-0.2-0.5-0.7-0.2-1.1c0.1-0.2,0.4-0.4,0.7-0.4
			c0.1,0,0.3,0,0.4,0.1l7.6,4.7c0.4,0.2,0.5,0.7,0.2,1.1C47.9,20.9,47.7,21,47.4,21z"/>
		<path class="st1" d="M20.9,12.5c-0.1,0-0.3,0-0.4-0.1L13,7.7c-0.2-0.1-0.3-0.3-0.3-0.5s0-0.4,0.1-0.6s0.4-0.4,0.7-0.4
			c0.1,0,0.3,0,0.4,0.1l7.6,4.7c0.4,0.2,0.5,0.7,0.2,1.1C21.5,12.4,21.2,12.5,20.9,12.5z"/>
		<path class="st1" d="M13.4,21c-0.3,0-0.5-0.1-0.7-0.4c-0.1-0.2-0.1-0.4-0.1-0.6s0.2-0.4,0.3-0.5l7.6-4.7c0.1-0.1,0.3-0.1,0.4-0.1
			c0.3,0,0.5,0.1,0.7,0.4c0.2,0.4,0.1,0.8-0.2,1.1l-7.6,4.7C13.7,21,13.5,21,13.4,21z"/>
		<path class="st1" d="M33.2,31.4c-0.4,0-0.8-0.3-0.8-0.8c0-0.4,0.3-0.8,0.8-0.8H38c0.4,0,0.8,0.3,0.8,0.8c0,0.4-0.3,0.8-0.8,0.8
			H33.2z"/>
		<path class="st1" d="M22.8,31.4c-0.4,0-0.8-0.3-0.8-0.8c0-0.4,0.3-0.8,0.8-0.8h4.7c0.4,0,0.8,0.3,0.8,0.8c0,0.4-0.3,0.8-0.8,0.8
			H22.8z"/>
		<path class="st1" d="M42.7,14.4c-0.4,0-0.8-0.3-0.8-0.8c0-0.4,0.3-0.8,0.8-0.8h5.7c0.4,0,0.8,0.3,0.8,0.8c0,0.4-0.3,0.8-0.8,0.8
			H42.7z"/>
		<path class="st1" d="M12.4,14.4c-0.4,0-0.8-0.3-0.8-0.8c0-0.4,0.3-0.8,0.8-0.8h5.7c0.4,0,0.8,0.3,0.8,0.8c0,0.4-0.3,0.8-0.8,0.8
			H12.4z"/>
	</g>
</g>
</svg>
