<?xml version="1.0" encoding="utf-8"?>
<!-- Generator: Adobe Illustrator 27.9.0, SVG Export Plug-In . SVG Version: 6.00 Build 0)  -->
<svg version="1.1" id="레이어_1" xmlns="http://www.w3.org/2000/svg" xmlns:xlink="http://www.w3.org/1999/xlink" x="0px"
	 y="0px" viewBox="0 0 59.4 55.9" style="enable-background:new 0 0 59.4 55.9;" xml:space="preserve">
<style type="text/css">
	.st0{fill:#EDC8D6;}
	.st1{fill:#181818;stroke:#060001;stroke-width:0.2;stroke-miterlimit:10;}
</style>
<g>
	<path class="st0" d="M51.5,40.2c0,4.9-4,8.9-8.9,8.9s-8.9-4-8.9-8.9s4-8.9,8.9-8.9C47.5,31.3,51.5,35.3,51.5,40.2z"/>
	<g>
		<g>
			<path class="st1" d="M39.3,39.6H13.6v-20c0-3.4,1.3-6.7,3.8-9.1c2.4-2.4,5.7-3.8,9.1-3.8s6.7,1.3,9.1,3.8
				c2.4,2.4,3.8,5.7,3.8,9.1L39.3,39.6L39.3,39.6z M15,38.2h22.9V19.6c0-3.1-1.2-5.9-3.4-8.1s-5-3.4-8.1-3.4s-5.9,1.2-8.1,3.4
				s-3.4,5-3.4,8.1L15,38.2L15,38.2z"/>
			<g>
				<path class="st1" d="M20.8,13.9l-1-1c1.8-1.8,4.1-2.8,6.7-2.8v1.4C24.3,11.6,22.3,12.4,20.8,13.9z"/>
				<path class="st1" d="M18.4,19.6H17c0-1.8,0.5-3.5,1.5-5.1l1.2,0.8C18.8,16.6,18.4,18.1,18.4,19.6z"/>
			</g>
			<path class="st1" d="M42.9,45.9H10v-3.4c0-1.1,0.4-2.2,1.3-3c0.8-0.8,1.9-1.3,3-1.3h24.3c1.1,0,2.2,0.4,3,1.3
				c0.8,0.8,1.3,1.9,1.3,3C42.9,42.5,42.9,45.9,42.9,45.9z M11.4,44.5h30.1v-2c0-0.8-0.3-1.5-0.8-2s-1.3-0.8-2-0.8H14.3
				c-0.8,0-1.5,0.3-2,0.8s-0.8,1.3-0.8,2v2H11.4z"/>
			<rect x="7.9" y="44.5" class="st1" width="37.2" height="1.4"/>
			<g>
				<rect x="25.7" y="28.9" class="st1" width="1.4" height="10"/>
				<path class="st1" d="M26.4,29.6c-2.5,0-4.6-2-4.6-4.6s2-4.6,4.6-4.6c2.5,0,4.6,2,4.6,4.6S28.9,29.6,26.4,29.6z M26.4,21.9
					c-1.7,0-3.2,1.4-3.2,3.2c0,1.7,1.4,3.2,3.2,3.2c1.7,0,3.2-1.4,3.2-3.2S28.2,21.9,26.4,21.9z"/>
			</g>
		</g>
	</g>
</g>
</svg>
