<?xml version="1.0" encoding="utf-8"?>
<!-- Generator: Adobe Illustrator 16.0.0, SVG Export Plug-In . SVG Version: 6.00 Build 0)  -->
<!DOCTYPE svg PUBLIC "-//W3C//DTD SVG 1.1//EN" "http://www.w3.org/Graphics/SVG/1.1/DTD/svg11.dtd">
<svg version="1.1" id="레이어_1" xmlns="http://www.w3.org/2000/svg" xmlns:xlink="http://www.w3.org/1999/xlink" x="0px"
	 y="0px" width="39.334px" height="28.667px" viewBox="0 0 39.334 28.667" enable-background="new 0 0 39.334 28.667"
	 xml:space="preserve">
<g>
	<path fill="#FFFFFF" d="M29.912,3.171c-2.713-0.859-6.168-1.372-9.243-1.372c-3.05,0-6.506,0.522-9.244,1.399
		c-2.278,0.73-4.987,2.008-5.076,3.977C6.345,7.208,6.343,7.241,6.343,7.274v3.277c0,0.394,0.319,0.713,0.713,0.713h7.338
		c0.394,0,0.712-0.319,0.712-0.713V7.957c0.547-0.461,2.461-1.023,5.565-1.023c2.816,0,4.931,0.501,5.55,1.026v2.592
		c0,0.394,0.319,0.713,0.713,0.713h7.339c0.394,0,0.713-0.319,0.713-0.713V7.364c0.003-0.029,0.005-0.06,0.005-0.09
		C34.991,5.643,33.235,4.225,29.912,3.171z M13.8,7.299c-0.077,0.116-0.118,0.253-0.118,0.392v2.148H7.768V7.355
		c0.003-0.026,0.004-0.054,0.004-0.081c0-0.681,1.074-1.753,4.087-2.718c2.605-0.834,5.898-1.332,8.809-1.332
		c2.938,0,6.231,0.488,8.813,1.306c2.923,0.926,4.02,1.979,4.082,2.681c-0.002,0.021-0.003,0.042-0.003,0.063v2.565h-5.914V7.691
		c0-0.143-0.043-0.284-0.124-0.402c-1.132-1.651-5.529-1.78-6.851-1.78C19.337,5.508,14.896,5.638,13.8,7.299z"/>
	<path fill="#FFFFFF" d="M33.774,22.339c-1.238,0-3.235-1.488-3.337-2.488c-0.007-0.062-0.021-0.12-0.041-0.175l-0.37-3.604
		c-0.023-1.501-1.359-2.671-3.061-2.671h-0.744v-0.157c0-0.981-0.747-1.781-1.781-1.995V9.127c0-0.394-0.319-0.713-0.712-0.713
		c-0.394,0-0.713,0.319-0.713,0.713v2.066h-4.703V9.127c0-0.394-0.319-0.713-0.712-0.713s-0.713,0.319-0.713,0.713v2.107
		c-1.07,0.189-1.852,1.004-1.852,2.011v0.157h-0.638c-1.703,0-3.04,1.171-3.062,2.672l-0.387,3.921
		c-0.097,0.942-2.169,2.345-3.466,2.345c-0.393,0-0.712,0.319-0.712,0.713v3.104c0,0.394,0.319,0.713,0.712,0.713h26.292
		c0.394,0,0.713-0.319,0.713-0.713v-3.104C34.487,22.659,34.168,22.339,33.774,22.339z M33.062,25.443H8.195v-1.354h24.866V25.443z
		 M9.193,23.377c0.435-0.178,0.873-0.41,1.282-0.687c0.654-0.442,1.769-1.36,1.892-2.554l0.391-3.955
		c0.002-0.023,0.003-0.047,0.003-0.069c0-0.71,0.734-1.285,1.637-1.285h1.35c0.393,0,0.713-0.319,0.713-0.713v-0.87
		c0-0.346,0.405-0.627,0.904-0.627h0.235h6.128h0.154c0.504,0,0.914,0.281,0.914,0.627v0.87c0,0.394,0.319,0.713,0.713,0.713h1.456
		c0.901,0,1.636,0.575,1.636,1.285c0,0.024,0.001,0.048,0.004,0.072l0.393,3.813c0.007,0.073,0.025,0.145,0.055,0.209
		c0.261,1.287,1.666,2.554,3.09,3.17H9.193z"/>
	<path fill="#FFFFFF" d="M20.569,14.636c-1.957,0-3.549,1.592-3.549,3.548s1.592,3.549,3.549,3.549c1.956,0,3.548-1.593,3.548-3.549
		S22.525,14.636,20.569,14.636z M20.569,21.02c-1.564,0-2.836-1.272-2.836-2.836s1.272-2.836,2.836-2.836
		c1.563,0,2.835,1.272,2.835,2.836S22.133,21.02,20.569,21.02z"/>
</g>
</svg>
