<?xml version="1.0" encoding="utf-8"?>
<!-- Generator: Adobe Illustrator 27.9.0, SVG Export Plug-In . SVG Version: 6.00 Build 0)  -->
<svg version="1.1" id="레이어_1" xmlns="http://www.w3.org/2000/svg" xmlns:xlink="http://www.w3.org/1999/xlink" x="0px"
	 y="0px" viewBox="0 0 59.4 55.9" style="enable-background:new 0 0 59.4 55.9;" xml:space="preserve">
<style type="text/css">
	.st0{fill:#EDC8D6;}
	.st1{fill:#333333;stroke:#060001;stroke-width:0.25;stroke-miterlimit:10;}
</style>
<g>
	<path class="st0" d="M54.4,48.7c0,1-0.8,1.9-1.9,1.9H39c-1,0-1.9-0.8-1.9-1.9V35.2c0-1,0.8-1.9,1.9-1.9h13.5c1,0,1.9,0.8,1.9,1.9
		V48.7z"/>
	<path class="st1" d="M5,44.3h40.5v1.4H5V44.3z M7.9,6.7h13v36.2h1.4V6.7h7.2v11.6H31v-13H6.4v37.6h1.4L7.9,6.7L7.9,6.7z M44,42.9
		V19.7H25.2v23.1h1.4V21.2h10.1v21.7h1.4V21.2h4.3v21.7C42.6,42.9,44,42.9,44,42.9z M19.5,9.6H9.3V11h10.1
		C19.5,11.1,19.5,9.6,19.5,9.6z M19.5,13.9H9.3v1.4h10.1C19.5,15.4,19.5,13.9,19.5,13.9z M19.5,18.3H9.3v1.4h10.1
		C19.5,19.7,19.5,18.3,19.5,18.3z M19.5,22.6H9.3V24h10.1C19.5,24.1,19.5,22.6,19.5,22.6z M19.5,27H9.3v1.4h10.1
		C19.5,28.4,19.5,27,19.5,27z M19.5,31.3H9.3v1.4h10.1C19.5,32.8,19.5,31.3,19.5,31.3z M9.3,37.1h10.1v-1.4H9.3V37.1z M29.6,24.1
		h-1.4V27h1.4V24.1z M35.4,24.1H34V27h1.4V24.1z M32.5,24.1H31V27h1.4L32.5,24.1L32.5,24.1z M29.6,29.9h-1.4v2.9h1.4V29.9z
		 M35.4,29.9H34v2.9h1.4V29.9z M32.5,29.9H31v2.9h1.4L32.5,29.9L32.5,29.9z M28.1,38.5h1.4v-2.9h-1.4V38.5z M33.9,38.5h1.4v-2.9
		h-1.4V38.5z M31,38.5h1.4v-2.9H31V38.5z"/>
</g>
</svg>
