<?xml version="1.0" encoding="utf-8"?>
<!-- Generator: Adobe Illustrator 16.0.0, SVG Export Plug-In . SVG Version: 6.00 Build 0)  -->
<!DOCTYPE svg PUBLIC "-//W3C//DTD SVG 1.1//EN" "http://www.w3.org/Graphics/SVG/1.1/DTD/svg11.dtd">
<svg version="1.1" id="레이어_1" xmlns="http://www.w3.org/2000/svg" xmlns:xlink="http://www.w3.org/1999/xlink" x="0px"
	 y="0px" width="124px" height="142px" viewBox="0 0 124 142" enable-background="new 0 0 124 142" xml:space="preserve">
<path fill="#3A3B37" d="M89.643,15.548c-0.611-0.459-1.409-0.636-2.123-0.424L33.385,29.455H18.066
	c-1.355,0-2.455,1.101-2.455,2.463v6.787H5.938c-1.361,0-2.461,1.089-2.461,2.451v19.092c0,1.36,1.1,2.455,2.461,2.455h9.674v6.782
	c0,1.361,1.1,2.462,2.455,2.462h7.368v52.563c0,1.372,1.095,2.456,2.451,2.456h10.979c1.35,0,2.451-1.084,2.451-2.456V74.277
	L87.52,86.513c0.2,0.048,0.411,0.085,0.629,0.085c0.538,0,1.064-0.182,1.494-0.521c0.599-0.46,0.962-1.18,0.962-1.947V17.496
	C90.604,16.728,90.241,16.008,89.643,15.548z M15.611,57.785H8.387V43.617h7.225V57.785z M20.528,67.04V34.374h10.677V67.04H20.528z
	 M36.402,122.059H30.34V71.946h2.309c0.124,0.056,0.254,0.103,0.389,0.14l3.364,0.891V122.059z M72.982,77.582L36.117,67.82V33.805
	l36.865-9.752V77.582z M85.692,80.948l-7.804-2.067V22.754l7.804-2.065V80.948z"/>
<path fill="#3A3B37" d="M97.494,32.462c0.448,0.847,1.301,1.324,2.178,1.324c0.388,0,0.781-0.097,1.137-0.29l17.12-8.99
	c1.191-0.617,1.657-2.117,1.029-3.309c-0.63-1.192-2.117-1.651-3.315-1.028l-17.108,8.99C97.337,29.782,96.871,31.27,97.494,32.462z
	"/>
<path fill="#3A3B37" d="M117.929,72.774l-17.12-8.983c-1.191-0.629-2.685-0.181-3.314,1.022c-0.623,1.198-0.157,2.686,1.04,3.315
	l17.108,8.984c0.363,0.199,0.756,0.291,1.138,0.291c0.889,0,1.735-0.491,2.178-1.319C119.586,74.879,119.12,73.386,117.929,72.774z"
	/>
<path fill="#3A3B37" d="M118.068,46.175H99.672c-1.354,0-2.449,1.114-2.449,2.457c0,1.36,1.095,2.461,2.449,2.461h18.396
	c1.354,0,2.455-1.101,2.455-2.461C120.523,47.289,119.423,46.175,118.068,46.175z"/>
</svg>
